<?xml version="1.0" standalone="no"?>
<!DOCTYPE svg PUBLIC "-//W3C//DTD SVG 20010904//EN"
 "http://www.w3.org/TR/2001/REC-SVG-20010904/DTD/svg10.dtd">
<svg version="1.0" xmlns="http://www.w3.org/2000/svg"
 width="410.000000pt" height="410.000000pt" viewBox="0 0 410.000000 410.000000"
 preserveAspectRatio="xMidYMid meet">
<metadata>
Created by potrace 1.14, written by Peter Selinger 2001-2017
</metadata>
<g transform="translate(0.000000,410.000000) scale(0.100000,-0.100000)"
fill="#000000" stroke="none">
<path d="M1898 4065 c-2 -1 -32 -6 -66 -9 -696 -72 -1309 -510 -1611 -1148
-93 -195 -158 -418 -177 -603 -3 -33 -8 -71 -10 -85 -6 -36 -5 -330 1 -360 3
-14 7 -49 10 -79 3 -30 7 -62 10 -70 2 -9 7 -29 10 -46 41 -237 151 -508 293
-723 291 -444 735 -750 1255 -866 158 -36 169 -37 397 -41 257 -5 385 11 609
76 217 62 444 176 636 318 94 70 292 258 363 346 53 65 176 254 219 335 60
114 138 311 159 405 1 6 9 37 18 70 14 55 18 79 31 155 20 125 26 378 12 515
-24 240 -85 449 -198 680 -79 161 -106 204 -205 335 -253 334 -600 578 -1004
705 -83 26 -153 45 -188 51 -12 2 -48 8 -80 14 -31 5 -75 12 -97 15 -41 6
-381 15 -387 10z"/>
</g>
</svg>
